<svg width="178" height="56" viewBox="0 0 178 56" fill="none" xmlns="http://www.w3.org/2000/svg">
<g style="mix-blend-mode:darken">
<path fill-rule="evenodd" clip-rule="evenodd" d="M28 0C12.536 0 0 12.536 0 28C0 43.464 12.536 56 28 56C43.464 56 56 43.464 56 28C56 12.536 43.464 0 28 0ZM38.1242 46.7137C40.0379 47.2099 42.2961 47.1094 44.899 46.4119C48.1387 45.5439 50.4267 44.1146 51.7631 42.1243C53.1272 40.1265 53.4494 37.7846 52.7297 35.0987C52.4774 34.1572 52.1117 33.2907 51.6325 32.4991C51.1533 31.7075 50.5163 31.0472 49.7217 30.5182C48.9547 29.9817 48.0199 29.5941 46.9172 29.3554C45.8145 29.1167 44.5237 29.0619 43.0447 29.1911L39.7849 29.4858C37.6394 29.6749 36.0576 29.4755 35.0394 28.8877C34.0415 28.2647 33.3682 27.3025 33.0195 26.0011C32.5743 24.3397 32.7665 22.9527 33.5962 21.8401C34.4258 20.7274 35.8236 19.9077 37.7896 19.3809C39.5894 18.8987 41.146 18.8377 42.4594 19.1981C43.7727 19.5584 44.9719 20.1571 46.0568 20.9942L47.9398 18.2193C46.5922 17.0668 45.0116 16.318 43.1978 15.973C41.4118 15.6206 39.3558 15.7561 37.0298 16.3793C34.067 17.1732 31.8951 18.4822 30.5142 20.3065C29.1333 22.1307 28.799 24.3719 29.5113 27.0301C29.7561 27.9439 30.1181 28.7966 30.5973 29.5882C31.0691 30.3521 31.6922 31.0162 32.4666 31.5803C33.2336 32.1167 34.1546 32.508 35.2296 32.7542C36.3323 32.9929 37.6231 33.0477 39.1021 32.9185L42.4865 32.5904C44.5692 32.3885 46.1196 32.5814 47.1378 33.1693C48.1485 33.7294 48.8431 34.7156 49.2215 36.1278C49.6889 37.8722 49.4987 39.3774 48.6508 40.6433C47.8029 41.9093 46.3267 42.8242 44.2223 43.388C42.4778 43.8555 40.876 43.9137 39.4167 43.5628C37.9852 43.2044 36.5126 42.4712 34.9989 41.3632L33.0218 44.1189C34.5023 45.3247 36.2031 46.1897 38.1242 46.7137Z" fill="black"/>
</g>
<g style="mix-blend-mode:darken">
<path fill-rule="evenodd" clip-rule="evenodd" d="M88.6079 0C73.1439 0 60.6079 12.536 60.6079 28C60.6079 43.464 73.1439 56 88.6079 56C104.072 56 116.608 43.464 116.608 28C116.608 12.536 104.072 0 88.6079 0ZM98.7321 46.7137C100.646 47.2099 102.904 47.1094 105.507 46.4119C108.747 45.5439 111.035 44.1146 112.371 42.1243C113.735 40.1265 114.057 37.7846 113.338 35.0987C113.085 34.1572 112.72 33.2907 112.24 32.4991C111.761 31.7075 111.124 31.0472 110.33 30.5182C109.563 29.9817 108.628 29.5941 107.525 29.3554C106.422 29.1167 105.132 29.0619 103.653 29.1911L100.393 29.4858C98.2473 29.6749 96.6655 29.4755 95.6473 28.8877C94.6494 28.2647 93.9761 27.3025 93.6274 26.0011C93.1822 24.3397 93.3744 22.9527 94.2041 21.8401C95.0337 20.7274 96.4315 19.9077 98.3975 19.3809C100.197 18.8987 101.754 18.8377 103.067 19.1981C104.381 19.5584 105.58 20.1571 106.665 20.9942L108.548 18.2193C107.2 17.0668 105.619 16.318 103.806 15.973C102.02 15.6206 99.9637 15.7561 97.6377 16.3793C94.6749 17.1732 92.503 18.4822 91.1221 20.3065C89.7412 22.1307 89.4069 24.3719 90.1192 27.0301C90.364 27.9439 90.726 28.7966 91.2053 29.5882C91.677 30.3521 92.3001 31.0162 93.0745 31.5803C93.8415 32.1167 94.7625 32.508 95.8375 32.7542C96.9402 32.9929 98.231 33.0477 99.71 32.9185L103.094 32.5904C105.177 32.3885 106.728 32.5814 107.746 33.1693C108.756 33.7294 109.451 34.7156 109.829 36.1278C110.297 37.8722 110.107 39.3774 109.259 40.6433C108.411 41.9093 106.935 42.8242 104.83 43.388C103.086 43.8555 101.484 43.9137 100.025 43.5628C98.5931 43.2044 97.1205 42.4712 95.6068 41.3632L93.6297 44.1189C95.1102 45.3247 96.811 46.1897 98.7321 46.7137Z" fill="black"/>
</g>
<g style="mix-blend-mode:darken">
<path fill-rule="evenodd" clip-rule="evenodd" d="M149.216 0C133.752 0 121.216 12.536 121.216 28C121.216 43.464 133.752 56 149.216 56C164.68 56 177.216 43.464 177.216 28C177.216 12.536 164.68 0 149.216 0ZM159.34 46.7137C161.254 47.2099 163.512 47.1094 166.115 46.4119C169.354 45.5439 171.643 44.1146 172.979 42.1243C174.343 40.1265 174.665 37.7846 173.946 35.0987C173.693 34.1572 173.328 33.2907 172.848 32.4991C172.369 31.7075 171.732 31.0472 170.938 30.5182C170.171 29.9817 169.236 29.5941 168.133 29.3554C167.03 29.1167 165.739 29.0619 164.261 29.1911L161.001 29.4858C158.855 29.6749 157.273 29.4755 156.255 28.8877C155.257 28.2647 154.584 27.3025 154.235 26.0011C153.79 24.3397 153.982 22.9527 154.812 21.8401C155.642 20.7274 157.039 19.9077 159.005 19.3809C160.805 18.8987 162.362 18.8377 163.675 19.1981C164.989 19.5584 166.188 20.1571 167.273 20.9942L169.156 18.2193C167.808 17.0668 166.227 16.318 164.414 15.973C162.628 15.6206 160.572 15.7561 158.246 16.3793C155.283 17.1732 153.111 18.4822 151.73 20.3065C150.349 22.1307 150.015 24.3719 150.727 27.0301C150.972 27.9439 151.334 28.7966 151.813 29.5882C152.285 30.3521 152.908 31.0162 153.682 31.5803C154.449 32.1167 155.37 32.508 156.445 32.7542C157.548 32.9929 158.839 33.0477 160.318 32.9185L163.702 32.5904C165.785 32.3885 167.335 32.5814 168.354 33.1693C169.364 33.7294 170.059 34.7156 170.437 36.1278C170.905 37.8722 170.715 39.3774 169.867 40.6433C169.019 41.9093 167.543 42.8242 165.438 43.388C163.694 43.8555 162.092 43.9137 160.633 43.5628C159.201 43.2044 157.728 42.4712 156.215 41.3632L154.238 44.1189C155.718 45.3247 157.419 46.1897 159.34 46.7137Z" fill="black"/>
</g>
</svg>
